<?xml version="1.0" encoding="utf-8"?>
<!-- Generator: Adobe Illustrator 26.2.1, SVG Export Plug-In . SVG Version: 6.00 Build 0)  -->
<svg version="1.1" id="Layer_1" xmlns="http://www.w3.org/2000/svg" xmlns:xlink="http://www.w3.org/1999/xlink" x="0px" y="0px"
	 viewBox="0 0 823.7 361.5" style="enable-background:new 0 0 823.7 361.5;" xml:space="preserve">
<style type="text/css">
	.st0{fill:#FFFFFF;}
</style>
<path class="st0" d="M131.6,132V0h-6.9c-8.8,0-15.9,7.2-15.9,15.9l0.1,69.9v23.5c0,0-84.2-0.2-93-0.2C7.1,109.1,0,116.3,0,125l0,0
	l0,0v6.9h131.6V132z"/>
<path class="st0" d="M149.4,0h-6.8v143H0v6.8c0,8.8,7.1,15.9,15.9,15.9l0,0h133.5c8.8,0,15.9-7.1,15.9-15.9l0,0l0,0V15.9
	C165.3,7.2,158.2,0,149.4,0L149.4,0L149.4,0L149.4,0z"/>
<path class="st0" d="M229.1,132V0h6.9c8.8,0,15.9,7.1,15.9,15.9l0,0l0,0l-0.1,69.9v23.4c0,0,84.2-0.2,93-0.2s15.9,7.1,15.9,15.9l0,0
	l0,0v6.9L229.1,132z"/>
<path class="st0" d="M211.2,0h6.8v143h142.6v6.8c0,8.8-7.1,15.9-15.9,15.9l0,0H211.2c-8.8,0-15.9-7.1-15.9-15.9l0,0l0,0V15.9
	C195.3,7.2,202.4,0,211.2,0z"/>
<path class="st0" d="M229.1,229.5v132h6.9c8.8,0,15.9-7.1,15.9-15.9l0,0l0,0l-0.1-69.9v-23.4c0,0,84.2,0.1,93,0.1
	s15.9-7.1,15.9-15.9v-7L229.1,229.5L229.1,229.5z"/>
<path class="st0" d="M211.2,361.5h6.8v-143h142.6v-6.8c0-8.8-7.1-15.9-15.9-15.9l0,0H211.2c-8.8,0-15.9,7.1-15.9,15.9l0,0l0,0v133.9
	C195.3,354.4,202.4,361.5,211.2,361.5L211.2,361.5z"/>
<path class="st0" d="M131.6,229.5v132h-6.9c-8.8,0-15.9-7.1-15.9-15.9l0,0l0,0l0.1-69.9v-23.4c0,0-84.2,0.1-93,0.1S0,245.3,0,236.5
	v-7L131.6,229.5L131.6,229.5z"/>
<path class="st0" d="M149.4,361.5h-6.8v-143H0v-6.8c0-8.8,7.1-15.9,15.9-15.9l0,0h133.5c8.8,0,15.9,7.1,15.9,15.9l0,0l0,0v133.9
	C165.3,354.4,158.2,361.5,149.4,361.5L149.4,361.5z"/>
<path class="st0" d="M503.9,234c0-45.3-99.5-33.4-99.5-107.2c0-40.7,35.4-65.1,80.7-65.1c23.5,0,43.3,4.6,57.9,10.9l-2.3,37.7
	c-12.2-5.3-35-10.6-55.9-10.6c-21.2,0-33.7,10.6-33.7,24.8c0,41.7,100.5,31.1,100.5,106.2c0,41-31.1,69.1-86.6,69.1
	c-23.1,0-49.6-5.6-63.5-12.9l6.3-38.4c16.2,7.9,38.4,13.2,59.2,13.2C489.4,261.8,503.9,251.9,503.9,234z"/>
<path class="st0" d="M697.1,191.7v0.7l51.6,104.2h-49.9l-42.7-92.3h-29.4v92.3h-45.3V67c18.5-1.7,42.7-3,67.8-3
	c60.8,0,90.6,21.8,90.6,67.1C739.7,161.6,721.5,184.1,697.1,191.7z M626.6,169.2h25.8c24.5,0,40.7-13.2,40.7-35.1
	c0-26.1-15.5-34.1-41.3-34.1c-11.2,0-19.5,0.7-25.1,1L626.6,169.2z"/>
<path class="st0" d="M823.7,296.5h-46V65h46V296.5z"/>
</svg>
